<svg xmlns="http://www.w3.org/2000/svg" width="805.4527587890625" height="579.7445068359375" viewBox="-303.1843566894531 -212.5187225341797 805.4527587890625 579.7445068359375"><title>Neo4j Graph Visualization</title><desc>Created using Neo4j (http://www.neo4j.com/)</desc><g class="layer relationships"><g class="relationship" transform="translate(-4.764003358120412 89.46214364120479) rotate(451.60593779998703)"><path class="outline" fill="#A5ABB6" stroke="none" d="M 25 0.75 L 81.96582540773254 0.75 L 81.96582540773254 -0.75 L 25 -0.75 Z M 159.39551290773255 0.75 L 216.36133831546508 0.75 L 216.36133831546508 3.75 L 223.86133831546508 0 L 216.36133831546508 -3.75 L 216.36133831546508 -0.75 L 159.39551290773255 -0.75 Z"/><text text-anchor="middle" pointer-events="none" font-size="8px" fill="#000000" x="120.68066915773254" y="3" transform="rotate(180 120.68066915773254 0)" font-family="sans-serif">ASSOCIATES_DaG</text></g><g class="relationship" transform="translate(473.2684223217534 295.8903314809073) rotate(535.0113952408454)"><path class="outline" fill="#A5ABB6" stroke="none" d="M 25 0.75 L 200.9606603138669 0.75 L 200.9606603138669 -0.75 L 25 -0.75 Z M 278.3903478138669 0.75 L 454.3510081277338 0.75 L 454.3510081277338 3.75 L 461.8510081277338 0 L 454.3510081277338 -3.75 L 454.3510081277338 -0.75 L 278.3903478138669 -0.75 Z"/><text text-anchor="middle" pointer-events="none" font-size="8px" fill="#000000" x="239.6755040638669" y="3" transform="rotate(180 239.6755040638669 0)" font-family="sans-serif">ASSOCIATES_DaG</text></g><g class="relationship" transform="translate(153.5630367524322 224.47516832884352) rotate(505.4665763289855)"><path class="outline" fill="#A5ABB6" stroke="none" d="M 25 0.75 L 57.86430962058466 0.75 L 57.86430962058466 -0.75 L 25 -0.75 Z M 135.29399712058466 0.75 L 168.15830674116933 0.75 L 168.15830674116933 3.75 L 175.65830674116933 0 L 168.15830674116933 -3.75 L 168.15830674116933 -0.75 L 135.29399712058466 -0.75 Z"/><text text-anchor="middle" pointer-events="none" font-size="8px" fill="#000000" x="96.57915337058466" y="3" transform="rotate(180 96.57915337058466 0)" font-family="sans-serif">ASSOCIATES_DaG</text></g><g class="relationship" transform="translate(-4.764003358120412 89.46214364120479) rotate(326.6184556121948)"><path class="outline" fill="#A5ABB6" stroke="none" d="M 25 0.75 L 53.90900314505737 0.75 L 53.90900314505737 -0.75 L 25 -0.75 Z M 131.33869064505737 0.75 L 160.24769379011474 0.75 L 160.24769379011474 3.75 L 167.74769379011474 0 L 160.24769379011474 -3.75 L 160.24769379011474 -0.75 L 131.33869064505737 -0.75 Z"/><text text-anchor="middle" pointer-events="none" font-size="8px" fill="#000000" x="92.62384689505737" y="3" font-family="sans-serif">ASSOCIATES_DaG</text></g><g class="relationship" transform="translate(387.1900798967112 122.68562974583469) rotate(211.08626230071377)"><path class="outline" fill="#A5ABB6" stroke="none" d="M 25 0.75 L 92.40634172824738 0.75 L 92.40634172824738 -0.75 L 25 -0.75 Z M 169.83602922824738 0.75 L 237.24237095649477 0.75 L 237.24237095649477 3.75 L 244.74237095649477 0 L 237.24237095649477 -3.75 L 237.24237095649477 -0.75 L 169.83602922824738 -0.75 Z"/><text text-anchor="middle" pointer-events="none" font-size="8px" fill="#000000" x="131.12118547824738" y="3" transform="rotate(180 131.12118547824738 0)" font-family="sans-serif">ASSOCIATES_DaG</text></g><g class="relationship" transform="translate(20.262911713917315 -130.5395873986999) rotate(399.9746015605932)"><path class="outline" fill="#A5ABB6" stroke="none" d="M 25 0.75 L 46.219128614811225 0.75 L 46.219128614811225 -0.75 L 25 -0.75 Z M 123.64881611481123 0.75 L 144.86794472962245 0.75 L 144.86794472962245 3.75 L 152.36794472962245 0 L 144.86794472962245 -3.75 L 144.86794472962245 -0.75 L 123.64881611481123 -0.75 Z"/><text text-anchor="middle" pointer-events="none" font-size="8px" fill="#000000" x="84.93397236481123" y="3" font-family="sans-serif">ASSOCIATES_DaG</text></g><g class="relationship" transform="translate(351.5758351947996 25.841264309901472) rotate(192.25215705492644)"><path class="outline" fill="#A5ABB6" stroke="none" d="M 25 0.75 L 57.50755036722808 0.75 L 57.50755036722808 -0.75 L 25 -0.75 Z M 134.93723786722808 0.75 L 167.44478823445615 0.75 L 167.44478823445615 3.75 L 174.94478823445615 0 L 167.44478823445615 -3.75 L 167.44478823445615 -0.75 L 134.93723786722808 -0.75 Z"/><text text-anchor="middle" pointer-events="none" font-size="8px" fill="#000000" x="96.22239411722808" y="3" transform="rotate(180 96.22239411722808 0)" font-family="sans-serif">ASSOCIATES_DaG</text></g><g class="relationship" transform="translate(153.5630367524322 224.47516832884352) rotate(270.6231968827122)"><path class="outline" fill="#A5ABB6" stroke="none" d="M 25 0.75 L 78.07482633222148 0.75 L 78.07482633222148 -0.75 L 25 -0.75 Z M 155.50451383222148 0.75 L 208.57934016444295 0.75 L 208.57934016444295 3.75 L 216.07934016444295 0 L 208.57934016444295 -3.75 L 208.57934016444295 -0.75 L 155.50451383222148 -0.75 Z"/><text text-anchor="middle" pointer-events="none" font-size="8px" fill="#000000" x="116.78967008222148" y="3" font-family="sans-serif">ASSOCIATES_DaG</text></g><g class="relationship" transform="translate(245.4647370177516 -183.51872604268095) rotate(478.1394836793722)"><path class="outline" fill="#A5ABB6" stroke="none" d="M 25 0.75 L 52.187244136783306 0.75 L 52.187244136783306 -0.75 L 25 -0.75 Z M 129.6169316367833 0.75 L 156.8041757735666 0.75 L 156.8041757735666 3.75 L 164.3041757735666 0 L 156.8041757735666 -3.75 L 156.8041757735666 -0.75 L 129.6169316367833 -0.75 Z"/><text text-anchor="middle" pointer-events="none" font-size="8px" fill="#000000" x="90.9020878867833" y="3" transform="rotate(180 90.9020878867833 0)" font-family="sans-serif">ASSOCIATES_DaG</text></g><g class="relationship" transform="translate(-4.764003358120412 89.46214364120479) rotate(190.61156948435882)"><path class="outline" fill="#A5ABB6" stroke="none" d="M 25 0.75 L 94.58921327496503 0.75 L 94.58921327496503 -0.75 L 25 -0.75 Z M 172.01890077496503 0.75 L 241.60811404993007 0.75 L 241.60811404993007 3.75 L 249.10811404993007 0 L 241.60811404993007 -3.75 L 241.60811404993007 -0.75 L 172.01890077496503 -0.75 Z"/><text text-anchor="middle" pointer-events="none" font-size="8px" fill="#000000" x="133.30405702496503" y="3" transform="rotate(180 133.30405702496503 0)" font-family="sans-serif">ASSOCIATES_DaG</text></g><g class="relationship" transform="translate(-242.16935391341468 221.66501891908052) rotate(260.0597424488901)"><path class="outline" fill="#A5ABB6" stroke="none" d="M 25 0.75 L 50.267141234711985 0.75 L 50.267141234711985 -0.75 L 25 -0.75 Z M 127.69682873471199 0.75 L 152.96396996942397 0.75 L 152.96396996942397 3.75 L 160.46396996942397 0 L 152.96396996942397 -3.75 L 152.96396996942397 -0.75 L 127.69682873471199 -0.75 Z"/><text text-anchor="middle" pointer-events="none" font-size="8px" fill="#000000" x="88.98198498471199" y="3" transform="rotate(180 88.98198498471199 0)" font-family="sans-serif">ASSOCIATES_DaG</text></g><g class="relationship" transform="translate(-165.57694712397065 -104.26911934896799) rotate(487.1673757586407)"><path class="outline" fill="#A5ABB6" stroke="none" d="M 25 0.75 L 47.420315442920824 0.75 L 47.420315442920824 -0.75 L 25 -0.75 Z M 124.85000294292082 0.75 L 147.27031838584165 0.75 L 147.27031838584165 3.75 L 154.77031838584165 0 L 147.27031838584165 -3.75 L 147.27031838584165 -0.75 L 124.85000294292082 -0.75 Z"/><text text-anchor="middle" pointer-events="none" font-size="8px" fill="#000000" x="86.13515919292082" y="3" transform="rotate(180 86.13515919292082 0)" font-family="sans-serif">ASSOCIATES_DaG</text></g></g><g class="layer nodes"><g class="node" transform="translate(-4.764003358120412,89.46214364120479)"><circle class="outline" cx="0" cy="0" r="25" fill="#8E4F00" stroke="#FFFFFF" stroke-width="1px"/><text text-anchor="middle" pointer-events="none" font-family="sans-serif" dy="1.5625" font-size="25" fill="#FFFFFF"/><text text-anchor="middle" pointer-events="none" font-family="sans-serif" dy="1.5625" font-size="25" fill="#FFFFFF"/><text class="caption" text-anchor="middle" pointer-events="none" y="0" font-size="10px" fill="#FFFFFF" font-family="sans-serif"> spinal</text><text class="caption" text-anchor="middle" pointer-events="none" y="10" font-size="10px" fill="#FFFFFF" font-family="sans-serif"> cancer</text></g><g class="node" transform="translate(-11.738400181903799,338.225733213933)"><circle class="outline" cx="0" cy="0" r="25" fill="#0096FF" stroke="#FFFFFF" stroke-width="1px"/><text text-anchor="middle" pointer-events="none" font-family="sans-serif" dy="1.5625" font-size="25" fill="#FFFFFF"/><text class="caption" text-anchor="middle" pointer-events="none" y="5" font-size="10px" fill="#FFFFFF" font-family="sans-serif"> SMARC…</text></g><g class="node" transform="translate(473.2684223217534,295.8903314809073)"><circle class="outline" cx="0" cy="0" r="25" fill="#8E4F00" stroke="#FFFFFF" stroke-width="1px"/><text text-anchor="middle" pointer-events="none" font-family="sans-serif" dy="1.5625" font-size="25" fill="#FFFFFF"/><text text-anchor="middle" pointer-events="none" font-family="sans-serif" dy="1.5625" font-size="25" fill="#FFFFFF"/><text text-anchor="middle" pointer-events="none" font-family="sans-serif" dy="1.5625" font-size="25" fill="#FFFFFF"/><text class="caption" text-anchor="middle" pointer-events="none" y="-5" font-size="10px" fill="#FFFFFF" font-family="sans-serif"> salivary</text><text class="caption" text-anchor="middle" pointer-events="none" y="5" font-size="10px" fill="#FFFFFF" font-family="sans-serif"> gland</text><text class="caption" text-anchor="middle" pointer-events="none" y="15" font-size="10px" fill="#FFFFFF" font-family="sans-serif"> cancer</text></g><g class="node" transform="translate(153.5630367524322,224.47516832884352)"><circle class="outline" cx="0" cy="0" r="25" fill="#8E4F00" stroke="#FFFFFF" stroke-width="1px"/><text text-anchor="middle" pointer-events="none" font-family="sans-serif" dy="1.5625" font-size="25" fill="#FFFFFF"/><text class="caption" text-anchor="middle" pointer-events="none" y="5" font-size="10px" fill="#FFFFFF" font-family="sans-serif"> meningi…</text></g><g class="node" transform="translate(156.18516585515343,-16.589911458942964)"><circle class="outline" cx="0" cy="0" r="25" fill="#0096FF" stroke="#FFFFFF" stroke-width="1px"/><text text-anchor="middle" pointer-events="none" font-family="sans-serif" dy="1.5625" font-size="25" fill="#FFFFFF"/><text class="caption" text-anchor="middle" pointer-events="none" y="5" font-size="10px" fill="#FFFFFF" font-family="sans-serif"> NF2</text></g><g class="node" transform="translate(387.1900798967112,122.68562974583469)"><circle class="outline" cx="0" cy="0" r="25" fill="#8E4F00" stroke="#FFFFFF" stroke-width="1px"/><text text-anchor="middle" pointer-events="none" font-family="sans-serif" dy="1.5625" font-size="25" fill="#FFFFFF"/><text class="caption" text-anchor="middle" pointer-events="none" y="5" font-size="10px" fill="#FFFFFF" font-family="sans-serif"> peripheral</text></g><g class="node" transform="translate(20.262911713917315,-130.5395873986999)"><circle class="outline" cx="0" cy="0" r="25" fill="#8E4F00" stroke="#FFFFFF" stroke-width="1px"/><text text-anchor="middle" pointer-events="none" font-family="sans-serif" dy="1.5625" font-size="25" fill="#FFFFFF"/><text text-anchor="middle" pointer-events="none" font-family="sans-serif" dy="1.5625" font-size="25" fill="#FFFFFF"/><text class="caption" text-anchor="middle" pointer-events="none" y="0" font-size="10px" fill="#FFFFFF" font-family="sans-serif"> kidney</text><text class="caption" text-anchor="middle" pointer-events="none" y="10" font-size="10px" fill="#FFFFFF" font-family="sans-serif"> cancer</text></g><g class="node" transform="translate(351.5758351947996,25.841264309901472)"><circle class="outline" cx="0" cy="0" r="25" fill="#8E4F00" stroke="#FFFFFF" stroke-width="1px"/><text text-anchor="middle" pointer-events="none" font-family="sans-serif" dy="1.5625" font-size="25" fill="#FFFFFF"/><text class="caption" text-anchor="middle" pointer-events="none" y="5" font-size="10px" fill="#FFFFFF" font-family="sans-serif"> malignant</text></g><g class="node" transform="translate(245.4647370177516,-183.51872604268095)"><circle class="outline" cx="0" cy="0" r="25" fill="#8E4F00" stroke="#FFFFFF" stroke-width="1px"/><text text-anchor="middle" pointer-events="none" font-family="sans-serif" dy="1.5625" font-size="25" fill="#FFFFFF"/><text text-anchor="middle" pointer-events="none" font-family="sans-serif" dy="1.5625" font-size="25" fill="#FFFFFF"/><text class="caption" text-anchor="middle" pointer-events="none" y="0" font-size="10px" fill="#FFFFFF" font-family="sans-serif"> epilepsy</text><text class="caption" text-anchor="middle" pointer-events="none" y="10" font-size="10px" fill="#FFFFFF" font-family="sans-serif"> syndro…</text></g><g class="node" transform="translate(-274.1843710487353,38.985181951109354)"><circle class="outline" cx="0" cy="0" r="25" fill="#0096FF" stroke="#FFFFFF" stroke-width="1px"/><text text-anchor="middle" pointer-events="none" font-family="sans-serif" dy="1.5625" font-size="25" fill="#FFFFFF"/><text class="caption" text-anchor="middle" pointer-events="none" y="5" font-size="10px" fill="#FFFFFF" font-family="sans-serif"> NRXN2</text></g><g class="node" transform="translate(-242.16935391341468,221.66501891908052)"><circle class="outline" cx="0" cy="0" r="25" fill="#8E4F00" stroke="#FFFFFF" stroke-width="1px"/><text text-anchor="middle" pointer-events="none" font-family="sans-serif" dy="1.5625" font-size="25" fill="#FFFFFF"/><text text-anchor="middle" pointer-events="none" font-family="sans-serif" dy="1.5625" font-size="25" fill="#FFFFFF"/><text class="caption" text-anchor="middle" pointer-events="none" y="0" font-size="10px" fill="#FFFFFF" font-family="sans-serif"> autistic</text><text class="caption" text-anchor="middle" pointer-events="none" y="10" font-size="10px" fill="#FFFFFF" font-family="sans-serif"> disorder</text></g><g class="node" transform="translate(-165.57694712397065,-104.26911934896799)"><circle class="outline" cx="0" cy="0" r="25" fill="#8E4F00" stroke="#FFFFFF" stroke-width="1px"/><text text-anchor="middle" pointer-events="none" font-family="sans-serif" dy="1.5625" font-size="25" fill="#FFFFFF"/><text class="caption" text-anchor="middle" pointer-events="none" y="5" font-size="10px" fill="#FFFFFF" font-family="sans-serif"> pancreatic</text></g></g></svg>