<svg xmlns="http://www.w3.org/2000/svg" width="593.8016967773438" height="570.33203125" viewBox="-191.79335021972656 -249.34532165527344 593.8016967773438 570.33203125"><title>Neo4j Graph Visualization</title><desc>Created using Neo4j (http://www.neo4j.com/)</desc><g class="layer relationships"><g class="relationship" transform="translate(36.910218379651724 25.41261738898038) rotate(480.64710919110746)"><path class="outline" fill="#A5ABB6" stroke="none" d="M 25 0.5 L 72.01974499561801 0.5 L 72.01974499561801 -0.5 L 25 -0.5 Z M 149.449432495618 0.5 L 196.46917749123602 0.5 L 196.46917749123602 3.5 L 203.46917749123602 0 L 196.46917749123602 -3.5 L 196.46917749123602 -0.5 L 149.449432495618 -0.5 Z"/><text text-anchor="middle" pointer-events="none" font-size="8px" fill="#000000" x="110.73458874561801" y="3" transform="rotate(180 110.73458874561801 0)" font-family="sans-serif">ASSOCIATES_DaG</text></g><g class="relationship" transform="translate(354.43876489775647 291.9866620619738) rotate(189.16469512022206)"><path class="outline" fill="#A5ABB6" stroke="none" d="M 25 0.5 L 177.5862417509388 0.5 L 177.5862417509388 -0.5 L 25 -0.5 Z M 255.0159292509388 0.5 L 407.6021710018776 0.5 L 407.6021710018776 3.5 L 414.6021710018776 0 L 407.6021710018776 -3.5 L 407.6021710018776 -0.5 L 255.0159292509388 -0.5 Z"/><text text-anchor="middle" pointer-events="none" font-size="8px" fill="#000000" x="216.3010855009388" y="3" transform="rotate(180 216.3010855009388 0)" font-family="sans-serif">ASSOCIATES_DaG</text></g><g class="relationship" transform="translate(218.87547300749412 207.21339829290275) rotate(537.1691583794611)"><path class="outline" fill="#A5ABB6" stroke="none" d="M 25 0.5 L 107.18105397342885 0.5 L 107.18105397342885 -0.5 L 25 -0.5 Z M 184.61074147342885 0.5 L 266.7917954468577 0.5 L 266.7917954468577 3.5 L 273.7917954468577 0 L 266.7917954468577 -3.5 L 266.7917954468577 -0.5 L 184.61074147342885 -0.5 Z"/><text text-anchor="middle" pointer-events="none" font-size="8px" fill="#000000" x="145.89589772342885" y="3" transform="rotate(180 145.89589772342885 0)" font-family="sans-serif">ASSOCIATES_DaG</text></g><g class="relationship" transform="translate(36.910218379651724 25.41261738898038) rotate(327.49167436855925)"><path class="outline" fill="#A5ABB6" stroke="none" d="M 25 0.5 L 60.89245550550763 0.5 L 60.89245550550763 -0.5 L 25 -0.5 Z M 138.32214300550763 0.5 L 174.21459851101525 0.5 L 174.21459851101525 3.5 L 181.21459851101525 0 L 174.21459851101525 -3.5 L 174.21459851101525 -0.5 L 138.32214300550763 -0.5 Z"/><text text-anchor="middle" pointer-events="none" font-size="8px" fill="#000000" x="99.60729925550763" y="3" font-family="sans-serif">ASSOCIATES_DaG</text></g><g class="relationship" transform="translate(297.54982937360546 115.36608686402941) rotate(246.63563369447627)"><path class="outline" fill="#A5ABB6" stroke="none" d="M 25 0.5 L 67.14106452765263 0.5 L 67.14106452765263 -0.5 L 25 -0.5 Z M 144.57075202765265 0.5 L 186.71181655530526 0.5 L 186.71181655530526 3.5 L 193.71181655530526 0 L 186.71181655530526 -3.5 L 186.71181655530526 -0.5 L 144.57075202765265 -0.5 Z"/><text text-anchor="middle" pointer-events="none" font-size="8px" fill="#000000" x="105.85590827765263" y="3" transform="rotate(180 105.85590827765263 0)" font-family="sans-serif">ASSOCIATES_DaG</text></g><g class="relationship" transform="translate(107.66522783788447 -162.3662947626704) rotate(396.72501711652194)"><path class="outline" fill="#A5ABB6" stroke="none" d="M 25 0.5 L 26.355763538558335 0.5 L 26.355763538558335 -0.5 L 25 -0.5 Z M 95.33623228855834 0.5 L 96.69199582711667 0.5 L 96.69199582711667 3.5 L 103.69199582711667 0 L 96.69199582711667 -3.5 L 96.69199582711667 -0.5 L 95.33623228855834 -0.5 Z"/><text text-anchor="middle" pointer-events="none" font-size="8px" fill="#000000" x="60.845997913558335" y="3" font-family="sans-serif">ASSOCIATES_…</text></g><g class="relationship" transform="translate(373.00837504267406 30.257013017827987) rotate(215.4944704487025)"><path class="outline" fill="#A5ABB6" stroke="none" d="M 25 0.5 L 57.392314458167576 0.5 L 57.392314458167576 -0.5 L 25 -0.5 Z M 134.82200195816756 0.5 L 167.21431641633515 0.5 L 167.21431641633515 3.5 L 174.21431641633515 0 L 167.21431641633515 -3.5 L 167.21431641633515 -0.5 L 134.82200195816756 -0.5 Z"/><text text-anchor="middle" pointer-events="none" font-size="8px" fill="#000000" x="96.10715820816758" y="3" transform="rotate(180 96.10715820816758 0)" font-family="sans-serif">ASSOCIATES_DaG</text></g><g class="relationship" transform="translate(218.87547300749412 207.21339829290275) rotate(268.42191856481054)"><path class="outline" fill="#A5ABB6" stroke="none" d="M 25 0.5 L 104.15320771177406 0.5 L 104.15320771177406 -0.5 L 25 -0.5 Z M 181.58289521177406 0.5 L 260.7361029235481 0.5 L 260.7361029235481 3.5 L 267.7361029235481 0 L 260.7361029235481 -3.5 L 260.7361029235481 -0.5 L 181.58289521177406 -0.5 Z"/><text text-anchor="middle" pointer-events="none" font-size="8px" fill="#000000" x="142.86805146177406" y="3" transform="rotate(180 142.86805146177406 0)" font-family="sans-serif">ASSOCIATES_DaG</text></g><g class="relationship" transform="translate(247.3827754549743 -220.34532175741685) rotate(465.16376062406147)"><path class="outline" fill="#A5ABB6" stroke="none" d="M 25 0.5 L 27.685768880943755 0.5 L 27.685768880943755 -0.5 L 25 -0.5 Z M 105.11545638094375 0.5 L 107.80122526188751 0.5 L 107.80122526188751 3.5 L 114.80122526188751 0 L 107.80122526188751 -3.5 L 107.80122526188751 -0.5 L 105.11545638094375 -0.5 Z"/><text text-anchor="middle" pointer-events="none" font-size="8px" fill="#000000" x="66.40061263094375" y="3" transform="rotate(180 66.40061263094375 0)" font-family="sans-serif">ASSOCIATES_DaG</text></g><g class="relationship" transform="translate(36.910218379651724 25.41261738898038) rotate(202.26529294798763)"><path class="outline" fill="#A5ABB6" stroke="none" d="M 25 0.5 L 65.681772964525 0.5 L 65.681772964525 -0.5 L 25 -0.5 Z M 143.111460464525 0.5 L 183.79323342905 0.5 L 183.79323342905 3.5 L 190.79323342905 0 L 183.79323342905 -3.5 L 183.79323342905 -0.5 L 143.111460464525 -0.5 Z"/><text text-anchor="middle" pointer-events="none" font-size="8px" fill="#000000" x="104.396616714525" y="3" transform="rotate(180 104.396616714525 0)" font-family="sans-serif">ASSOCIATES_DaG</text></g><g class="relationship" transform="translate(-157.78082873634185 130.3600414010441) rotate(268.46218132184237)"><path class="outline" fill="#A5ABB6" stroke="none" d="M 25 0.5 L 51.17406210611432 0.5 L 51.17406210611432 -0.5 L 25 -0.5 Z M 128.60374960611432 0.5 L 154.77781171222864 0.5 L 154.77781171222864 3.5 L 161.77781171222864 0 L 154.77781171222864 -3.5 L 154.77781171222864 -0.5 L 128.60374960611432 -0.5 Z"/><text text-anchor="middle" pointer-events="none" font-size="8px" fill="#000000" x="89.88890585611432" y="3" transform="rotate(180 89.88890585611432 0)" font-family="sans-serif">ASSOCIATES_DaG</text></g><g class="relationship" transform="translate(-73.56985970478236 -154.34859527343497) rotate(492.3166517718578)"><path class="outline" fill="#A5ABB6" stroke="none" d="M 25 0.5 L 25.386576862880148 0.5 L 25.386576862880148 -0.5 L 25 -0.5 Z M 100.14438936288015 0.5 L 100.5309662257603 0.5 L 100.5309662257603 3.5 L 107.5309662257603 0 L 100.5309662257603 -3.5 L 100.5309662257603 -0.5 L 100.14438936288015 -0.5 Z"/><text text-anchor="middle" pointer-events="none" font-size="8px" fill="#000000" x="62.76548311288015" y="3" transform="rotate(180 62.76548311288015 0)" font-family="sans-serif">ASSOCIATES_D…</text></g><g class="relationship" transform="translate(218.87547300749412 207.21339829290275) rotate(224.9740942016055)"><path class="outline" fill="#A5ABB6" stroke="none" d="M 25 0.5 L 88.32361901599728 0.5 L 88.32361901599728 -0.5 L 25 -0.5 Z M 161.89783776599728 0.5 L 225.22145678199456 0.5 L 225.22145678199456 3.5 L 232.22145678199456 0 L 225.22145678199456 -3.5 L 225.22145678199456 -0.5 L 161.89783776599728 -0.5 Z"/><text text-anchor="middle" pointer-events="none" font-size="8px" fill="#000000" x="125.11072839099728" y="3" transform="rotate(180 125.11072839099728 0)" font-family="sans-serif">RESEMBLES_DrD</text></g><g class="relationship" transform="translate(297.54982937360546 115.36608686402941) rotate(199.04087824554654)"><path class="outline" fill="#A5ABB6" stroke="none" d="M 25 0.5 L 97.57571510070673 0.5 L 97.57571510070673 -0.5 L 25 -0.5 Z M 171.14993385070673 0.5 L 243.72564895141346 0.5 L 243.72564895141346 3.5 L 250.72564895141346 0 L 243.72564895141346 -3.5 L 243.72564895141346 -0.5 L 171.14993385070673 -0.5 Z"/><text text-anchor="middle" pointer-events="none" font-size="8px" fill="#000000" x="134.36282447570673" y="3" transform="rotate(180 134.36282447570673 0)" font-family="sans-serif">RESEMBLES_DrD</text></g><g class="relationship" transform="translate(297.54982937360546 115.36608686402941) rotate(432.1464124436378)"><path class="outline" fill="#A5ABB6" stroke="none" d="M 25 0.5 L 52.49109195527443 0.5 L 52.49109195527443 -0.5 L 25 -0.5 Z M 126.06531070527443 0.5 L 153.55640266054886 0.5 L 153.55640266054886 3.5 L 160.55640266054886 0 L 153.55640266054886 -3.5 L 153.55640266054886 -0.5 L 126.06531070527443 -0.5 Z"/><text text-anchor="middle" pointer-events="none" font-size="8px" fill="#000000" x="89.27820133027443" y="3" font-family="sans-serif">RESEMBLES_DrD</text></g><g class="relationship" transform="translate(218.87547300749412 207.21339829290275) rotate(310.58262180197244)"><path class="outline" fill="#A5ABB6" stroke="none" d="M 25 0.5 L 25.515013234805792 0.5 L 25.515013234805792 -0.5 L 25 -0.5 Z M 88.42126323480579 0.5 L 88.93627646961158 0.5 L 88.93627646961158 3.5 L 95.93627646961158 0 L 88.93627646961158 -3.5 L 88.93627646961158 -0.5 L 88.42126323480579 -0.5 Z"/><text text-anchor="middle" pointer-events="none" font-size="8px" fill="#000000" x="56.96813823480579" y="3" font-family="sans-serif">RESEMBLES…</text></g><g class="relationship" transform="translate(107.66522783788447 -162.3662947626704) rotate(537.4669308575908)"><path class="outline" fill="#A5ABB6" stroke="none" d="M 25 0.5 L 50.41906525178298 0.5 L 50.41906525178298 -0.5 L 25 -0.5 Z M 123.99328400178298 0.5 L 149.41234925356596 0.5 L 149.41234925356596 3.5 L 156.41234925356596 0 L 149.41234925356596 -3.5 L 149.41234925356596 -0.5 L 123.99328400178298 -0.5 Z"/><text text-anchor="middle" pointer-events="none" font-size="8px" fill="#000000" x="87.20617462678298" y="3" transform="rotate(180 87.20617462678298 0)" font-family="sans-serif">RESEMBLES_DrD</text></g></g><g class="layer nodes"><g class="node" transform="translate(36.910218379651724,25.41261738898038)"><circle class="outline" cx="0" cy="0" r="25" fill="#6DCE9E" stroke="#60B58B" stroke-width="2px"/><text text-anchor="middle" pointer-events="none" font-family="sans-serif" dy="1.5625" font-size="25" fill="#FFFFFF"/><text text-anchor="middle" pointer-events="none" font-family="sans-serif" dy="1.5625" font-size="25" fill="#FFFFFF"/><text class="caption" text-anchor="middle" pointer-events="none" y="0" font-size="10px" fill="#FFFFFF" font-family="sans-serif"> spinal</text><text class="caption" text-anchor="middle" pointer-events="none" y="10" font-size="10px" fill="#FFFFFF" font-family="sans-serif"> cancer</text></g><g class="node" transform="translate(-79.55170603525063,221.96995056456933)"><circle class="outline" cx="0" cy="0" r="25" fill="#68BDF6" stroke="#5CA8DB" stroke-width="2px"/><text text-anchor="middle" pointer-events="none" font-family="sans-serif" dy="1.5625" font-size="25" fill="#FFFFFF"/><text class="caption" text-anchor="middle" pointer-events="none" y="5" font-size="10px" fill="#FFFFFF" font-family="sans-serif"> SMARC…</text></g><g class="node" transform="translate(354.43876489775647,291.9866620619738)"><circle class="outline" cx="0" cy="0" r="25" fill="#6DCE9E" stroke="#60B58B" stroke-width="2px"/><text text-anchor="middle" pointer-events="none" font-family="sans-serif" dy="1.5625" font-size="25" fill="#FFFFFF"/><text text-anchor="middle" pointer-events="none" font-family="sans-serif" dy="1.5625" font-size="25" fill="#FFFFFF"/><text text-anchor="middle" pointer-events="none" font-family="sans-serif" dy="1.5625" font-size="25" fill="#FFFFFF"/><text class="caption" text-anchor="middle" pointer-events="none" y="-5" font-size="10px" fill="#FFFFFF" font-family="sans-serif"> salivary</text><text class="caption" text-anchor="middle" pointer-events="none" y="5" font-size="10px" fill="#FFFFFF" font-family="sans-serif"> gland</text><text class="caption" text-anchor="middle" pointer-events="none" y="15" font-size="10px" fill="#FFFFFF" font-family="sans-serif"> cancer</text></g><g class="node" transform="translate(218.87547300749412,207.21339829290275)"><circle class="outline" cx="0" cy="0" r="25" fill="#6DCE9E" stroke="#60B58B" stroke-width="2px"/><text text-anchor="middle" pointer-events="none" font-family="sans-serif" dy="1.5625" font-size="25" fill="#FFFFFF"/><text class="caption" text-anchor="middle" pointer-events="none" y="5" font-size="10px" fill="#FFFFFF" font-family="sans-serif"> meningi…</text></g><g class="node" transform="translate(210.8137447588054,-85.4116766622529)"><circle class="outline" cx="0" cy="0" r="25" fill="#68BDF6" stroke="#5CA8DB" stroke-width="2px"/><text text-anchor="middle" pointer-events="none" font-family="sans-serif" dy="1.5625" font-size="25" fill="#FFFFFF"/><text class="caption" text-anchor="middle" pointer-events="none" y="5" font-size="10px" fill="#FFFFFF" font-family="sans-serif"> NF2</text></g><g class="node" transform="translate(297.54982937360546,115.36608686402941)"><circle class="outline" cx="0" cy="0" r="25" fill="#6DCE9E" stroke="#60B58B" stroke-width="2px"/><text text-anchor="middle" pointer-events="none" font-family="sans-serif" dy="1.5625" font-size="25" fill="#FFFFFF"/><text class="caption" text-anchor="middle" pointer-events="none" y="5" font-size="10px" fill="#FFFFFF" font-family="sans-serif"> peripheral</text></g><g class="node" transform="translate(107.66522783788447,-162.3662947626704)"><circle class="outline" cx="0" cy="0" r="25" fill="#6DCE9E" stroke="#60B58B" stroke-width="2px"/><text text-anchor="middle" pointer-events="none" font-family="sans-serif" dy="1.5625" font-size="25" fill="#FFFFFF"/><text text-anchor="middle" pointer-events="none" font-family="sans-serif" dy="1.5625" font-size="25" fill="#FFFFFF"/><text class="caption" text-anchor="middle" pointer-events="none" y="0" font-size="10px" fill="#FFFFFF" font-family="sans-serif"> kidney</text><text class="caption" text-anchor="middle" pointer-events="none" y="10" font-size="10px" fill="#FFFFFF" font-family="sans-serif"> cancer</text></g><g class="node" transform="translate(373.00837504267406,30.257013017827987)"><circle class="outline" cx="0" cy="0" r="25" fill="#6DCE9E" stroke="#60B58B" stroke-width="2px"/><text text-anchor="middle" pointer-events="none" font-family="sans-serif" dy="1.5625" font-size="25" fill="#FFFFFF"/><text class="caption" text-anchor="middle" pointer-events="none" y="5" font-size="10px" fill="#FFFFFF" font-family="sans-serif"> malignant</text></g><g class="node" transform="translate(247.3827754549743,-220.34532175741685)"><circle class="outline" cx="0" cy="0" r="25" fill="#6DCE9E" stroke="#60B58B" stroke-width="2px"/><text text-anchor="middle" pointer-events="none" font-family="sans-serif" dy="1.5625" font-size="25" fill="#FFFFFF"/><text text-anchor="middle" pointer-events="none" font-family="sans-serif" dy="1.5625" font-size="25" fill="#FFFFFF"/><text class="caption" text-anchor="middle" pointer-events="none" y="0" font-size="10px" fill="#FFFFFF" font-family="sans-serif"> epilepsy</text><text class="caption" text-anchor="middle" pointer-events="none" y="10" font-size="10px" fill="#FFFFFF" font-family="sans-serif"> syndro…</text></g><g class="node" transform="translate(-162.7933431849283,-56.35049833067929)"><circle class="outline" cx="0" cy="0" r="25" fill="#68BDF6" stroke="#5CA8DB" stroke-width="2px"/><text text-anchor="middle" pointer-events="none" font-family="sans-serif" dy="1.5625" font-size="25" fill="#FFFFFF"/><text class="caption" text-anchor="middle" pointer-events="none" y="5" font-size="10px" fill="#FFFFFF" font-family="sans-serif"> NRXN2</text></g><g class="node" transform="translate(-157.78082873634185,130.3600414010441)"><circle class="outline" cx="0" cy="0" r="25" fill="#6DCE9E" stroke="#60B58B" stroke-width="2px"/><text text-anchor="middle" pointer-events="none" font-family="sans-serif" dy="1.5625" font-size="25" fill="#FFFFFF"/><text text-anchor="middle" pointer-events="none" font-family="sans-serif" dy="1.5625" font-size="25" fill="#FFFFFF"/><text class="caption" text-anchor="middle" pointer-events="none" y="0" font-size="10px" fill="#FFFFFF" font-family="sans-serif"> autistic</text><text class="caption" text-anchor="middle" pointer-events="none" y="10" font-size="10px" fill="#FFFFFF" font-family="sans-serif"> disorder</text></g><g class="node" transform="translate(-73.56985970478236,-154.34859527343497)"><circle class="outline" cx="0" cy="0" r="25" fill="#6DCE9E" stroke="#60B58B" stroke-width="2px"/><text text-anchor="middle" pointer-events="none" font-family="sans-serif" dy="1.5625" font-size="25" fill="#FFFFFF"/><text class="caption" text-anchor="middle" pointer-events="none" y="5" font-size="10px" fill="#FFFFFF" font-family="sans-serif"> pancreatic</text></g></g></svg>